<?xml version="1.0" encoding="UTF-8"?>
<svg viewBox="0 0 274 165" version="1.1" xmlns="http://www.w3.org/2000/svg">
    <defs></defs>
    <g stroke="none" stroke-width="1" fill="none" fill-rule="evenodd">
        <g transform="translate(0.000000, -402.000000)" fill="currentColor">
            <g transform="translate(0.000000, 402.000000)">
                <path d="M9.2944,78.4751 C9.2944,85.5931 11.9714,90.4891 18.0924,90.4891 C24.2164,90.4891 27.7354,85.5931 27.7354,78.4751 C27.7354,71.3591 24.2164,66.4611 18.0924,66.4611 C11.9714,66.4611 9.2944,71.3591 9.2944,78.4751 M9.7524,95.6941 L9.7524,114.0591 C9.7524,115.1301 8.8344,116.0491 7.7634,116.0491 L0.2634,116.0491 L0.2634,61.2581 C0.2634,60.1851 1.1824,59.2671 2.3284,59.2671 L7.0734,59.2671 C7.9914,59.2671 8.7584,59.8041 8.9864,60.6461 L9.2944,61.4861 C11.8954,59.7271 14.4974,58.6571 18.7054,58.6571 C30.9494,58.6571 37.4534,67.7621 37.4534,78.4751 C37.4534,89.1891 30.9494,98.2951 18.7054,98.2951 C14.7274,98.2951 12.2774,97.3771 9.7524,95.6941"></path>
                <path d="M61.1797,68.2217 L57.6597,68.2217 C54.5217,68.2217 51.7667,69.9047 50.6967,72.0477 L50.6967,96.3057 C50.6967,97.3007 49.8537,98.1427 48.8587,98.1427 L41.2067,98.1427 L41.2067,61.7187 C41.2067,60.7217 42.0477,59.8817 43.0437,59.8817 L48.3227,59.8817 C49.3197,59.8817 50.1597,60.6457 50.1597,61.6397 L50.3137,63.9377 C52.3027,61.8697 56.1287,59.2667 60.4917,59.2667 L61.0277,59.2667 C62.0217,59.2667 62.7857,60.1857 62.6347,61.2577 L61.1797,68.2217 Z"></path>
                <path d="M70.7617,79.0879 C70.7617,86.2059 74.2817,91.1019 80.4027,91.1019 C86.5257,91.1019 90.0457,86.2059 90.0457,79.0879 C90.0457,71.9699 86.5257,67.0739 80.4027,67.0739 C74.2817,67.0739 70.7617,71.9699 70.7617,79.0879 M61.0427,79.0879 C61.0427,68.3739 68.1597,59.2679 80.4027,59.2679 C92.6467,59.2679 99.7627,68.3739 99.7627,79.0879 C99.7627,89.8009 92.6467,98.9079 80.4027,98.9079 C68.1597,98.9079 61.0427,89.8009 61.0427,79.0879"></path>
                <path d="M112.8149,78.4751 C112.8149,85.5931 115.4919,90.4891 121.6139,90.4891 C127.7369,90.4891 131.2559,85.5931 131.2559,78.4751 C131.2559,71.3591 127.7369,66.4611 121.6139,66.4611 C115.4919,66.4611 112.8149,71.3591 112.8149,78.4751 M113.2729,95.6941 L113.2729,114.0591 C113.2729,115.1301 112.3549,116.0491 111.2839,116.0491 L103.7839,116.0491 L103.7839,61.2581 C103.7839,60.1851 104.7029,59.2671 105.8489,59.2671 L110.5939,59.2671 C111.5119,59.2671 112.2789,59.8041 112.5069,60.6461 L112.8149,61.4861 C115.4169,59.7271 118.0179,58.6571 122.2259,58.6571 C134.4699,58.6571 140.9759,67.7621 140.9759,78.4751 C140.9759,89.1891 134.4699,98.2951 122.2259,98.2951 C118.2479,98.2951 115.7979,97.3771 113.2729,95.6941"></path>
                <path d="M154.041,75.2608 L169.499,75.2608 C169.499,71.8188 167.738,67.6868 162.612,67.6868 C157.713,67.6868 154.959,70.9008 154.041,75.2608 Z M153.811,81.6898 C154.884,88.8058 160.163,91.7128 165.213,91.7128 C168.044,91.7128 171.794,90.7948 174.778,89.5718 C175.927,89.1878 177.075,89.9538 177.151,91.1028 L177.458,96.6118 C174.55,98.1428 170.112,99.5188 164.679,99.5188 C150.828,99.5188 143.94,90.4148 143.94,79.7008 C143.94,69.0638 150.521,59.8808 162.306,59.8808 C171.947,59.8808 179.14,66.3838 179.14,76.4858 C179.14,77.6338 179.064,78.8588 178.834,80.0828 C178.682,80.9998 177.84,81.6898 176.921,81.6898 L153.811,81.6898 Z"></path>
                <path d="M203.4023,68.2217 L199.8823,68.2217 C196.7453,68.2217 193.9893,69.9047 192.9193,72.0477 L192.9193,96.3057 C192.9193,97.3007 192.0763,98.1427 191.0823,98.1427 L183.4303,98.1427 L183.4303,61.7187 C183.4303,60.7217 184.2703,59.8817 185.2673,59.8817 L190.5463,59.8817 C191.5423,59.8817 192.3823,60.6457 192.3823,61.6397 L192.5363,63.9377 C194.5263,61.8697 198.3523,59.2667 202.7143,59.2667 L203.2503,59.2667 C204.2453,59.2667 205.0093,60.1857 204.8573,61.2577 L203.4023,68.2217 Z"></path>
                <path d="M230.3647,96.9937 C230.2887,97.8367 229.5217,98.5247 228.6797,98.5247 L223.4007,98.5247 C216.2067,98.5247 213.1457,93.4737 213.1457,88.4997 L213.1457,67.3027 L209.3977,67.3027 C208.4787,67.3027 207.7127,66.5377 207.7127,65.6197 L207.7127,61.1807 C207.7127,60.2627 208.4787,59.4987 209.3977,59.4987 L213.1457,59.4987 L213.1457,51.7687 C213.1457,50.8497 213.9117,50.0857 214.8307,50.0857 L222.6347,50.0857 L222.6347,59.4987 L229.3697,59.4987 C230.2887,59.4987 231.0527,60.2627 231.0527,61.1807 L231.0527,67.3027 L222.6347,67.3027 L222.6347,84.5977 C222.6347,90.4147 223.0947,90.7187 228.4517,90.7187 L229.1397,90.7187 C230.1347,90.7187 230.9767,91.5607 230.8227,92.6317 L230.3647,96.9937 Z"></path>
                <path d="M251.2036,115.0547 C250.8216,116.0487 249.9036,116.6607 248.8326,116.6607 L243.3976,116.6607 C242.3276,116.6607 241.5626,115.5127 241.9446,114.5177 L249.5976,95.6167 L234.5976,61.9467 C234.1386,60.9517 234.8276,59.8797 235.9756,59.8797 L244.2406,59.8797 L254.0356,84.5207 L263.2936,61.4867 C263.6786,60.4917 264.6726,59.8797 265.7436,59.8797 L272.2486,59.8797 C273.3196,59.8797 274.0856,60.9517 273.6256,61.9467 L251.2036,115.0547 Z"></path>
                <path d="M112.8149,141.5645 L112.8149,141.1065 C112.8149,138.4265 114.9579,136.3615 117.5599,136.3615 C120.1609,136.3615 122.3039,138.4265 122.3039,141.1065 L122.3039,141.5645 C122.3039,144.1665 120.1609,146.3095 117.5599,146.3095 C114.9579,146.3095 112.8149,144.1665 112.8149,141.5645"></path>
                <path d="M149.9185,146.3091 C149.3825,146.3091 149.0005,146.0791 148.6935,145.6971 L142.1885,135.5191 L135.7615,146.3091 L125.8905,146.3091 C125.2775,146.3091 124.8955,145.6211 125.2015,145.0841 L136.7555,127.1771 L124.4355,108.0471 L134.9965,108.0471 C135.4555,108.0471 135.9155,108.2771 136.1435,108.6601 L142.7245,118.8371 L148.6935,108.7361 C149.0005,108.2771 149.4605,108.0471 149.9185,108.0471 L158.9475,108.0471 C159.6375,108.0471 160.0195,108.7361 159.6375,109.2721 L148.0815,127.1771 L159.6375,145.0841 C160.0195,145.6211 159.6375,146.3091 158.9475,146.3091 L149.9185,146.3091 Z"></path>
                <path d="M179.4834,163.2212 C179.1014,164.2162 178.1824,164.8282 177.1094,164.8282 L171.6774,164.8282 C170.6064,164.8282 169.8404,163.6792 170.2244,162.6852 L177.8764,143.7832 L162.8764,110.1142 C162.4184,109.1192 163.1074,108.0462 164.2554,108.0462 L172.5194,108.0462 L182.3154,132.6872 L191.5734,109.6532 C191.9554,108.6582 192.9504,108.0462 194.0234,108.0462 L200.5284,108.0462 C201.5984,108.0462 202.3634,109.1192 201.9044,110.1142 L179.4834,163.2212 Z"></path>
                <path d="M236.8135,114.6284 L217.0715,137.7384 L217.0715,137.9684 L234.2115,137.9684 C235.2065,137.9684 236.0495,138.8094 236.0495,139.8054 L236.0495,146.3094 L205.8215,146.3094 C204.7505,146.3094 203.9845,145.4684 203.9845,144.4724 L203.9845,140.8764 C203.9845,140.4944 204.1385,140.0334 204.3665,139.7274 L224.1875,116.7724 L206.4335,116.5414 C205.4385,116.5414 204.6745,115.6994 204.6745,114.7044 L204.6745,108.0474 L235.0545,108.0474 C236.1255,108.0474 236.8895,108.8874 236.8895,109.9604 L236.8135,114.6284 Z"></path>
                <path d="M70.1953,0.5215 L40.1973,12.1695 C39.5973,12.4035 39.2013,12.9825 39.2013,13.6285 L39.2013,48.5225 C39.2013,49.3895 39.8993,50.0855 40.7643,50.0855 L48.6703,50.0855 L48.6703,40.6585 L48.6703,26.9495 L48.6703,18.5295 L70.7613,10.4205 L92.8513,18.5295 L92.8513,40.6585 L77.2133,40.6585 L57.3163,40.6585 C56.6383,40.6585 55.9933,40.9505 55.5473,41.4625 L48.6703,50.0855 L64.6243,50.0855 L100.7593,50.0855 C101.6213,50.0855 102.3213,49.3895 102.3213,48.5225 L102.3213,13.6285 C102.3213,12.9825 101.9253,12.4035 101.3253,12.1695 L71.3273,0.5215 C70.9613,0.3795 70.5613,0.3795 70.1953,0.5215"></path>
            </g>
        </g>
    </g>
</svg>